<?xml version="1.0" standalone="no"?>
<!DOCTYPE svg PUBLIC "-//W3C//DTD SVG 20010904//EN"
 "http://www.w3.org/TR/2001/REC-SVG-20010904/DTD/svg10.dtd">
<svg version="1.0" xmlns="http://www.w3.org/2000/svg"
 width="178.000000pt" height="178.000000pt" viewBox="0 0 178.000000 178.000000"
 preserveAspectRatio="xMidYMid meet">
<metadata>
Created by potrace 1.14, written by Peter Selinger 2001-2017
</metadata>
<g transform="translate(0.000000,178.000000) scale(0.100000,-0.100000)"
fill="#000000" stroke="none">
<path d="M665 1756 c-162 -43 -301 -123 -417 -242 -121 -125 -182 -233 -228
-408 -14 -53 -19 -105 -19 -220 1 -130 4 -162 25 -235 33 -111 56 -161 120
-258 131 -195 351 -341 579 -381 49 -9 276 -9 326 -1 123 21 298 105 406 195
158 132 279 339 310 534 16 95 8 281 -15 370 -74 284 -278 512 -552 618 -148
57 -376 69 -535 28z"/>
</g>
</svg>
